<svg width="657.9px" height="121.4px" xmlns="http://www.w3.org/2000/svg" viewBox="-78.94687499999998 14.300000000000004 657.89375 121.39999999999999" style="background: rgba(0, 0, 0, 0)" preserveAspectRatio="xMidYMid"><defs><filter id="editing-vr"><feFlood flood-color="#f00" flood-opacity="0.7" result="c1"></feFlood><feFlood flood-color="#00f" flood-opacity="0.7" result="c3"></feFlood><feComposite operator="in" in="c1" in2="SourceAlpha" result="text-c1"></feComposite><feComposite operator="in" in="c3" in2="SourceAlpha" result="text-c3"></feComposite><feOffset in="text-c1" dx="5" dy="-1" result="text1"></feOffset><feOffset in="text-c3" dx="-5" dy="1" result="text3"></feOffset><feBlend in="SourceGraphic" in2="text1" mode="multiply" result="text4"></feBlend><feBlend in="text4" in2="text3" mode="multiply"></feBlend></filter></defs><g filter="url(#editing-vr)"><g transform="matrix(1.1,0,0,1,-14,104.5)"><path d="M -19.3 0 L -33.2 0 L -25.1 -42.2 L -11 -42.2 L -19.3 0 Z M 36.5 1.3 L 36.5 1.3 L 36.5 1.3 Q 28.7 1.3 28.7 -4.7 L 28.7 -4.7 L 28.7 -4.7 Q 28.7 -7.4 29.9 -12.4 L 29.9 -12.4 L 29.9 -12.4 Q 31 -17.5 31.4 -19.6 L 31.4 -19.6 L 31.4 -19.6 Q 32.3 -24.3 32.3 -25.7 L 32.3 -25.7 L 32.3 -25.7 Q 32.3 -29 29.8 -29 L 29.8 -29 L 29.8 -29 Q 28.2 -29 26.7 -26.8 L 26.7 -26.8 L 26.7 -26.8 Q 25.1 -24.6 24.4 -20.2 L 24.4 -20.2 L 20.5 0 L 8 1.3 L 11.5 -16.1 L 11.5 -16.1 Q 12 -19 12.5 -22.3 L 12.5 -22.3 L 12.5 -22.3 Q 13.1 -25.5 13.1 -26.1 L 13.1 -26.1 L 13.1 -26.1 Q 13.1 -29 10.9 -29 L 10.9 -29 L 10.9 -29 Q 9.4 -29 7.8 -26.8 L 7.8 -26.8 L 7.8 -26.8 Q 6.2 -24.6 5.3 -20.2 L 5.3 -20.2 L 1.4 0 L -11.2 1.3 L -4.5 -32.6 L 5.9 -33.9 L 4.9 -27.5 L 4.9 -27.5 Q 6.5 -30.9 9.6 -32.4 L 9.6 -32.4 L 9.6 -32.4 Q 12.7 -33.9 17.5 -33.9 L 17.5 -33.9 L 17.5 -33.9 Q 20.2 -33.9 22 -32.6 L 22 -32.6 L 22 -32.6 Q 23.8 -31.2 24.4 -29.1 L 24.4 -29.1 L 24.4 -29.1 Q 25.5 -31.3 28.3 -32.6 L 28.3 -32.6 L 28.3 -32.6 Q 31 -33.9 34.5 -33.9 L 34.5 -33.9 L 34.5 -33.9 Q 37.9 -33.9 39.6 -33.2 L 39.6 -33.2 L 39.6 -33.2 Q 41.3 -32.5 42.3 -31.2 L 42.3 -31.2 L 42.3 -31.2 Q 44 -29 44 -24.9 L 44 -24.9 L 44 -24.9 Q 44 -20.9 42.3 -12.5 L 42.3 -12.5 L 42.3 -12.5 Q 41.4 -8.4 41.4 -6.9 L 41.4 -6.9 L 41.4 -6.9 Q 41.4 -5.4 42.3 -4.5 L 42.3 -4.5 L 42.3 -4.5 Q 43.1 -3.6 44.4 -3.5 L 44.4 -3.5 L 44.4 -3.5 Q 43.8 -1.3 41.6 0 L 41.6 0 L 41.6 0 Q 39.4 1.3 36.5 1.3 Z M 52.1 -1.9 L 52.1 -1.9 L 52.1 -1.9 Q 50.6 -3.6 49.9 -6.2 L 49.9 -6.2 L 49.9 -6.2 Q 49.3 -8.8 49.3 -13.1 L 49.3 -13.1 L 49.3 -13.1 Q 49.3 -17.4 50.7 -21.3 L 50.7 -21.3 L 50.7 -21.3 Q 52.2 -25.2 54.9 -28 L 54.9 -28 L 54.9 -28 Q 60.4 -33.9 69.5 -33.9 L 69.5 -33.9 L 69.5 -33.9 Q 72.8 -33.9 75.1 -32.8 L 75.1 -32.8 L 86.1 -33.9 L 81.3 -9 L 81.3 -9 Q 81.1 -8.2 81.1 -6.8 L 81.1 -6.8 L 81.1 -6.8 Q 81.1 -5.4 82 -4.5 L 82 -4.5 L 82 -4.5 Q 82.9 -3.6 84.2 -3.5 L 84.2 -3.5 L 84.2 -3.5 Q 83.5 -1.3 81.2 0 L 81.2 0 L 81.2 0 Q 78.8 1.3 76.2 1.3 L 76.2 1.3 L 76.2 1.3 Q 73.6 1.3 71.8 0.3 L 71.8 0.3 L 71.8 0.3 Q 70.1 -0.7 69.6 -2.4 L 69.6 -2.4 L 69.6 -2.4 Q 68.5 -0.8 66.4 0.3 L 66.4 0.3 L 66.4 0.3 Q 64.2 1.3 61.3 1.3 L 61.3 1.3 L 61.3 1.3 Q 58.4 1.3 56 0.5 L 56 0.5 L 56 0.5 Q 53.6 -0.3 52.1 -1.9 Z M 65.6 -27.9 L 65.6 -27.9 L 65.6 -27.9 Q 64.9 -26.8 64.3 -24.8 L 64.3 -24.8 L 64.3 -24.8 Q 63.6 -22.9 62.6 -17.6 L 62.6 -17.6 L 62.6 -17.6 Q 61.5 -12.4 61.5 -8.7 L 61.5 -8.7 L 61.5 -8.7 Q 61.5 -5 62.1 -3.9 L 62.1 -3.9 L 62.1 -3.9 Q 62.7 -2.8 63.7 -2.8 L 63.7 -2.8 L 63.7 -2.8 Q 65.7 -2.8 67.2 -4.8 L 67.2 -4.8 L 67.2 -4.8 Q 68.7 -6.7 69.3 -10.2 L 69.3 -10.2 L 72.7 -28.9 L 72.7 -28.9 Q 71.4 -30.1 69.8 -30.1 L 69.8 -30.1 L 69.8 -30.1 Q 68.2 -30.1 67.3 -29.6 L 67.3 -29.6 L 67.3 -29.6 Q 66.4 -29.1 65.6 -27.9 Z M 93.8 -26.8 L 93.8 -26.8 L 93.8 -26.8 Q 96 -29.8 99.3 -31.9 L 99.3 -31.9 L 99.3 -31.9 Q 102.6 -33.9 106.6 -33.9 L 106.6 -33.9 L 106.6 -33.9 Q 110.7 -33.9 112.6 -32.6 L 112.6 -32.6 L 125.1 -33.9 L 120.8 -9.3 L 120.8 -9.3 Q 118.5 3.2 113.8 8.1 L 113.8 8.1 L 113.8 8.1 Q 109.2 12.8 100.4 12.8 L 100.4 12.8 L 100.4 12.8 Q 93.7 12.8 89.9 10.7 L 89.9 10.7 L 89.9 10.7 Q 86 8.6 86 5.1 L 86 5.1 L 86 5.1 Q 86 2.4 88 0.9 L 88 0.9 L 88 0.9 Q 90 -0.6 93.1 -0.6 L 93.1 -0.6 L 93.1 -0.6 Q 95.7 -0.6 97.8 0.6 L 97.8 0.6 L 97.8 0.6 Q 99 1.3 99.6 2.2 L 99.6 2.2 L 99.6 2.2 Q 98.1 3.5 98.1 5.6 L 98.1 5.6 L 98.1 5.6 Q 98.1 8.3 100.7 8.3 L 100.7 8.3 L 100.7 8.3 Q 105 8.3 107.4 -1.8 L 107.4 -1.8 L 107.4 -1.8 Q 108.1 -4.5 108.7 -7.3 L 108.7 -7.3 L 108.7 -7.3 Q 105.8 -3.8 99.3 -3.8 L 99.3 -3.8 L 99.3 -3.8 Q 94.7 -3.8 92.1 -6 L 92.1 -6 L 92.1 -6 Q 89.5 -8.1 89.5 -13.3 L 89.5 -13.3 L 89.5 -13.3 Q 89.5 -16.4 90.6 -20.1 L 90.6 -20.1 L 90.6 -20.1 Q 91.6 -23.7 93.8 -26.8 Z M 102.1 -13.1 L 102.1 -13.1 L 102.1 -13.1 Q 102.1 -8.7 104.4 -8.7 L 104.4 -8.7 L 104.4 -8.7 Q 105.9 -8.7 107.4 -10.4 L 107.4 -10.4 L 107.4 -10.4 Q 108.5 -11.7 109 -13.7 L 109 -13.7 L 112.3 -30.1 L 112.3 -30.1 Q 111.9 -30.2 111.6 -30.3 L 111.6 -30.3 L 111.6 -30.3 Q 111 -30.6 110.1 -30.6 L 110.1 -30.6 L 110.1 -30.6 Q 106.2 -30.6 103.9 -24.2 L 103.9 -24.2 L 103.9 -24.2 Q 102.1 -19.2 102.1 -13.1 Z M 153.5 -10.8 L 153.5 -10.8 L 153.5 -10.8 Q 155.1 -9.7 155.1 -7.3 L 155.1 -7.3 L 155.1 -7.3 Q 155.1 -4.9 153.9 -3.4 L 153.9 -3.4 L 153.9 -3.4 Q 152.7 -1.9 150.7 -0.8 L 150.7 -0.8 L 150.7 -0.8 Q 146.6 1.3 142.2 1.3 L 142.2 1.3 L 142.2 1.3 Q 137.8 1.3 135.2 0.3 L 135.2 0.3 L 135.2 0.3 Q 132.6 -0.6 130.9 -2.4 L 130.9 -2.4 L 130.9 -2.4 Q 127.5 -5.8 127.5 -12 L 127.5 -12 L 127.5 -12 Q 127.5 -21.7 132.7 -27.6 L 132.7 -27.6 L 132.7 -27.6 Q 138.4 -33.9 148.2 -33.9 L 148.2 -33.9 L 148.2 -33.9 Q 154.2 -33.9 157.2 -31.4 L 157.2 -31.4 L 157.2 -31.4 Q 159.5 -29.4 159.5 -26.3 L 159.5 -26.3 L 159.5 -26.3 Q 159.5 -15 140 -15 L 140 -15 L 140 -15 Q 139.8 -13.4 139.8 -12 L 139.8 -12 L 139.8 -12 Q 139.8 -9 141.1 -7.9 L 141.1 -7.9 L 141.1 -7.9 Q 142.4 -6.8 144.8 -6.8 L 144.8 -6.8 L 144.8 -6.8 Q 147.3 -6.8 149.9 -7.9 L 149.9 -7.9 L 149.9 -7.9 Q 152.4 -9 153.5 -10.8 Z M 140.5 -17.8 L 140.5 -17.8 L 140.5 -17.8 Q 145 -17.8 147.6 -20.6 L 147.6 -20.6 L 147.6 -20.6 Q 150.3 -23.3 150.3 -27.6 L 150.3 -27.6 L 150.3 -27.6 Q 150.3 -29.1 149.7 -29.9 L 149.7 -29.9 L 149.7 -29.9 Q 149.2 -30.7 148.1 -30.7 L 148.1 -30.7 L 148.1 -30.7 Q 147 -30.7 146.1 -30.2 L 146.1 -30.2 L 146.1 -30.2 Q 145.1 -29.8 144.2 -28.4 L 144.2 -28.4 L 144.2 -28.4 Q 141.8 -25.2 140.5 -17.8 Z M 180.8 -22.5 L 180.8 -22.5 L 180.8 -22.5 Q 181.7 -24.8 181.7 -26.9 L 181.7 -26.9 L 181.7 -26.9 Q 181.7 -30.7 178.6 -30.7 L 178.6 -30.7 L 178.6 -30.7 Q 177 -30.7 175.7 -29.2 L 175.7 -29.2 L 175.7 -29.2 Q 174.4 -27.8 174.4 -26 L 174.4 -26 L 174.4 -26 Q 174.4 -24.7 175.4 -23.7 L 175.4 -23.7 L 175.4 -23.7 Q 176.9 -22.3 180.7 -20 L 180.7 -20 L 180.7 -20 Q 184.4 -17.7 185.9 -15.8 L 185.9 -15.8 L 185.9 -15.8 Q 187.3 -13.9 187.3 -11.3 L 187.3 -11.3 L 187.3 -11.3 Q 187.3 -8.7 186.1 -6.3 L 186.1 -6.3 L 186.1 -6.3 Q 184.8 -4 182.6 -2.3 L 182.6 -2.3 L 182.6 -2.3 Q 177.8 1.3 170.1 1.3 L 170.1 1.3 L 170.1 1.3 Q 165.9 1.3 162.7 -0.9 L 162.7 -0.9 L 162.7 -0.9 Q 159.5 -3 159.5 -5.5 L 159.5 -5.5 L 159.5 -5.5 Q 159.5 -8 161.4 -9.5 L 161.4 -9.5 L 161.4 -9.5 Q 163.2 -10.9 165.9 -10.9 L 165.9 -10.9 L 165.9 -10.9 Q 168.6 -10.9 170.2 -9.9 L 170.2 -9.9 L 170.2 -9.9 Q 169.4 -7.8 169.4 -6.4 L 169.4 -6.4 L 169.4 -6.4 Q 169.4 -2.2 173 -2.2 L 173 -2.2 L 173 -2.2 Q 174.5 -2.2 175.5 -3.1 L 175.5 -3.1 L 175.5 -3.1 Q 176.6 -4.1 176.6 -5.8 L 176.6 -5.8 L 176.6 -5.8 Q 176.6 -9 171.1 -12.5 L 171.1 -12.5 L 171.1 -12.5 Q 166.6 -15.4 165.6 -16.6 L 165.6 -16.6 L 165.6 -16.6 Q 163.8 -18.6 163.8 -21.2 L 163.8 -21.2 L 163.8 -21.2 Q 163.8 -23.7 165.1 -26.2 L 165.1 -26.2 L 165.1 -26.2 Q 166.3 -28.6 168.5 -30.3 L 168.5 -30.3 L 168.5 -30.3 Q 173.2 -33.9 181.3 -33.9 L 181.3 -33.9 L 181.3 -33.9 Q 185.5 -33.9 187.9 -32.3 L 187.9 -32.3 L 187.9 -32.3 Q 190.4 -30.6 190.4 -27.8 L 190.4 -27.8 L 190.4 -27.8 Q 190.4 -25 188.7 -23.4 L 188.7 -23.4 L 188.7 -23.4 Q 187 -21.8 183.9 -21.8 L 183.9 -21.8 L 183.9 -21.8 Q 181.8 -21.8 180.8 -22.5 Z M 231.9 -20.6 L 244.8 -21.8 L 244.8 -21.8 Q 240.2 -11.7 240.2 0.1 L 240.2 0.1 L 240.2 0.1 Q 238.5 1.3 235.9 1.3 L 235.9 1.3 L 235.9 1.3 Q 233.4 1.3 231.8 0.1 L 231.8 0.1 L 231.8 0.1 Q 230.2 -1.1 229.9 -2.3 L 229.9 -2.3 L 229.9 -2.3 Q 228.3 -0.6 225.7 0.3 L 225.7 0.3 L 225.7 0.3 Q 223.1 1.3 220.3 1.3 L 220.3 1.3 L 220.3 1.3 Q 217.6 1.3 215.2 0.4 L 215.2 0.4 L 215.2 0.4 Q 212.8 -0.5 210.9 -2.5 L 210.9 -2.5 L 210.9 -2.5 Q 206.8 -6.8 206.8 -15.1 L 206.8 -15.1 L 206.8 -15.1 Q 206.8 -27.9 213.7 -35.6 L 213.7 -35.6 L 213.7 -35.6 Q 220.7 -43.5 233.2 -43.5 L 233.2 -43.5 L 233.2 -43.5 Q 241.9 -43.5 244.9 -39 L 244.9 -39 L 244.9 -39 Q 245.9 -37.6 245.9 -35.9 L 245.9 -35.9 L 245.9 -35.9 Q 245.9 -34.2 245.1 -32.8 L 245.1 -32.8 L 245.1 -32.8 Q 244.4 -31.4 243.3 -30.2 L 243.3 -30.2 L 243.3 -30.2 Q 240.5 -27.6 237.1 -27.6 L 237.1 -27.6 L 237.1 -27.6 Q 235.8 -27.6 234.5 -28.1 L 234.5 -28.1 L 234.5 -28.1 Q 234.7 -30 234.7 -32.3 L 234.7 -32.3 L 234.7 -32.3 Q 234.7 -34.5 234.6 -35.5 L 234.6 -35.5 L 234.6 -35.5 Q 234.4 -36.5 234 -37.4 L 234 -37.4 L 234 -37.4 Q 233.2 -39.1 231.4 -39.1 L 231.4 -39.1 L 231.4 -39.1 Q 229.6 -39.1 227.5 -37.1 L 227.5 -37.1 L 227.5 -37.1 Q 225.5 -35.2 223.9 -32 L 223.9 -32 L 223.9 -32 Q 220.4 -24.8 220.4 -16.2 L 220.4 -16.2 L 220.4 -16.2 Q 220.4 -12.2 221.9 -9.4 L 221.9 -9.4 L 221.9 -9.4 Q 223.6 -6.3 226.6 -6.3 L 226.6 -6.3 L 226.6 -6.3 Q 227.6 -6.3 228.5 -6.8 L 228.5 -6.8 L 228.5 -6.8 Q 229.4 -7.4 229.8 -7.7 L 229.8 -7.7 L 231.9 -20.6 Z M 250.7 -1.9 L 250.7 -1.9 L 250.7 -1.9 Q 249.2 -3.6 248.5 -6.2 L 248.5 -6.2 L 248.5 -6.2 Q 247.9 -8.8 247.9 -13.1 L 247.9 -13.1 L 247.9 -13.1 Q 247.9 -17.4 249.3 -21.3 L 249.3 -21.3 L 249.3 -21.3 Q 250.8 -25.2 253.5 -28 L 253.5 -28 L 253.5 -28 Q 259 -33.9 268.1 -33.9 L 268.1 -33.9 L 268.1 -33.9 Q 271.4 -33.9 273.7 -32.8 L 273.7 -32.8 L 284.7 -33.9 L 279.9 -9 L 279.9 -9 Q 279.7 -8.2 279.7 -6.8 L 279.7 -6.8 L 279.7 -6.8 Q 279.7 -5.4 280.6 -4.5 L 280.6 -4.5 L 280.6 -4.5 Q 281.5 -3.6 282.7 -3.5 L 282.7 -3.5 L 282.7 -3.5 Q 282.1 -1.3 279.8 0 L 279.8 0 L 279.8 0 Q 277.4 1.3 274.8 1.3 L 274.8 1.3 L 274.8 1.3 Q 272.2 1.3 270.4 0.3 L 270.4 0.3 L 270.4 0.3 Q 268.7 -0.7 268.2 -2.4 L 268.2 -2.4 L 268.2 -2.4 Q 267.1 -0.8 265 0.3 L 265 0.3 L 265 0.3 Q 262.8 1.3 259.9 1.3 L 259.9 1.3 L 259.9 1.3 Q 257 1.3 254.6 0.5 L 254.6 0.5 L 254.6 0.5 Q 252.2 -0.3 250.7 -1.9 Z M 264.2 -27.9 L 264.2 -27.9 L 264.2 -27.9 Q 263.5 -26.8 262.8 -24.8 L 262.8 -24.8 L 262.8 -24.8 Q 262.2 -22.9 261.1 -17.6 L 261.1 -17.6 L 261.1 -17.6 Q 260.1 -12.4 260.1 -8.7 L 260.1 -8.7 L 260.1 -8.7 Q 260.1 -5 260.7 -3.9 L 260.7 -3.9 L 260.7 -3.9 Q 261.2 -2.8 262.3 -2.8 L 262.3 -2.8 L 262.3 -2.8 Q 264.3 -2.8 265.8 -4.8 L 265.8 -4.8 L 265.8 -4.8 Q 267.3 -6.7 267.9 -10.2 L 267.9 -10.2 L 271.3 -28.9 L 271.3 -28.9 Q 269.9 -30.1 268.4 -30.1 L 268.4 -30.1 L 268.4 -30.1 Q 266.8 -30.1 265.9 -29.6 L 265.9 -29.6 L 265.9 -29.6 Q 265 -29.1 264.2 -27.9 Z M 303.4 -3.5 L 303.4 -3.5 L 303.4 -3.5 Q 301.4 1.3 295.1 1.3 L 295.1 1.3 L 295.1 1.3 Q 291.9 1.3 289.9 -1 L 289.9 -1 L 289.9 -1 Q 288.2 -2.8 288.2 -4.9 L 288.2 -4.9 L 288.2 -4.9 Q 288.2 -9.7 290.4 -20.2 L 290.4 -20.2 L 295.1 -44.8 L 308.1 -46.1 L 301.9 -13.7 L 301.9 -13.7 Q 300.8 -9 300.8 -7.3 L 300.8 -7.3 L 300.8 -7.3 Q 300.8 -3.6 303.4 -3.5 Z M 324.2 -3.5 L 324.2 -3.5 L 324.2 -3.5 Q 322.2 1.3 315.8 1.3 L 315.8 1.3 L 315.8 1.3 Q 312.6 1.3 310.6 -1 L 310.6 -1 L 310.6 -1 Q 308.9 -2.8 308.9 -4.9 L 308.9 -4.9 L 308.9 -4.9 Q 308.9 -9.7 311.2 -20.2 L 311.2 -20.2 L 315.8 -44.8 L 328.8 -46.1 L 322.6 -13.7 L 322.6 -13.7 Q 321.5 -9 321.5 -7.3 L 321.5 -7.3 L 321.5 -7.3 Q 321.5 -3.6 324.2 -3.5 Z M 355.5 -10.8 L 355.5 -10.8 L 355.5 -10.8 Q 357.1 -9.7 357.1 -7.3 L 357.1 -7.3 L 357.1 -7.3 Q 357.1 -4.9 355.9 -3.4 L 355.9 -3.4 L 355.9 -3.4 Q 354.7 -1.9 352.7 -0.8 L 352.7 -0.8 L 352.7 -0.8 Q 348.6 1.3 344.2 1.3 L 344.2 1.3 L 344.2 1.3 Q 339.8 1.3 337.2 0.3 L 337.2 0.3 L 337.2 0.3 Q 334.6 -0.6 332.9 -2.4 L 332.9 -2.4 L 332.9 -2.4 Q 329.5 -5.8 329.5 -12 L 329.5 -12 L 329.5 -12 Q 329.5 -21.7 334.7 -27.6 L 334.7 -27.6 L 334.7 -27.6 Q 340.3 -33.9 350.1 -33.9 L 350.1 -33.9 L 350.1 -33.9 Q 356.2 -33.9 359.2 -31.4 L 359.2 -31.4 L 359.2 -31.4 Q 361.5 -29.4 361.5 -26.3 L 361.5 -26.3 L 361.5 -26.3 Q 361.5 -15 342 -15 L 342 -15 L 342 -15 Q 341.8 -13.4 341.8 -12 L 341.8 -12 L 341.8 -12 Q 341.8 -9 343.1 -7.9 L 343.1 -7.9 L 343.1 -7.9 Q 344.4 -6.8 346.8 -6.8 L 346.8 -6.8 L 346.8 -6.8 Q 349.2 -6.8 351.8 -7.9 L 351.8 -7.9 L 351.8 -7.9 Q 354.4 -9 355.5 -10.8 Z M 342.5 -17.8 L 342.5 -17.8 L 342.5 -17.8 Q 347 -17.8 349.6 -20.6 L 349.6 -20.6 L 349.6 -20.6 Q 352.3 -23.3 352.3 -27.6 L 352.3 -27.6 L 352.3 -27.6 Q 352.3 -29.1 351.7 -29.9 L 351.7 -29.9 L 351.7 -29.9 Q 351.2 -30.7 350.1 -30.7 L 350.1 -30.7 L 350.1 -30.7 Q 349 -30.7 348.1 -30.2 L 348.1 -30.2 L 348.1 -30.2 Q 347.1 -29.8 346.2 -28.4 L 346.2 -28.4 L 346.2 -28.4 Q 343.8 -25.2 342.5 -17.8 Z M 383.7 -18 L 383.7 -18 L 383.7 -18 Q 386 -22.1 386 -26.2 L 386 -26.2 L 386 -26.2 Q 386 -29 384 -29 L 384 -29 L 384 -29 Q 382.5 -29 380.9 -26.4 L 380.9 -26.4 L 380.9 -26.4 Q 379.2 -23.7 378.7 -20.4 L 378.7 -20.4 L 375.4 0 L 362.1 1.3 L 368.6 -32.6 L 379.2 -33.9 L 378 -27.5 L 378 -27.5 Q 381.2 -33.9 388.2 -33.9 L 388.2 -33.9 L 388.2 -33.9 Q 391.9 -33.9 393.9 -32 L 393.9 -32 L 393.9 -32 Q 396 -30.1 396 -26.1 L 396 -26.1 L 396 -26.1 Q 396 -22.2 393.4 -19.7 L 393.4 -19.7 L 393.4 -19.7 Q 390.8 -17.2 386.4 -17.2 L 386.4 -17.2 L 386.4 -17.2 Q 384.4 -17.2 383.7 -18 Z M 417.3 -7.2 L 417.3 -7.2 L 417.3 -7.2 Q 414 -3.8 407.9 -3.8 L 407.9 -3.8 L 407.9 -3.8 Q 400.3 -3.8 398.7 -9.3 L 398.7 -9.3 L 398.7 -9.3 Q 398.2 -11 398.2 -12.9 L 398.2 -12.9 L 398.2 -12.9 Q 398.2 -14.7 398.6 -16.6 L 398.6 -16.6 L 401.6 -32.6 L 414.6 -33.9 L 411.1 -15.3 L 411.1 -15.3 Q 410.9 -14.5 410.7 -13.6 L 410.7 -13.6 L 410.7 -13.6 Q 410.6 -12.7 410.6 -11.7 L 410.6 -11.7 L 410.6 -11.7 Q 410.6 -10.8 410.9 -10.2 L 410.9 -10.2 L 410.9 -10.2 Q 411.2 -9.6 411.6 -9.2 L 411.6 -9.2 L 411.6 -9.2 Q 412.4 -8.7 413.8 -8.7 L 413.8 -8.7 L 413.8 -8.7 Q 415.2 -8.7 416.3 -10.4 L 416.3 -10.4 L 416.3 -10.4 Q 417.5 -12 418.1 -14.9 L 418.1 -14.9 L 421.6 -32.6 L 434.2 -33.9 L 429.4 -8.8 L 429.4 -8.8 Q 427.1 3.5 422.2 8.4 L 422.2 8.4 L 422.2 8.4 Q 419.7 10.9 416.5 11.9 L 416.5 11.9 L 416.5 11.9 Q 413.2 12.9 409.1 12.9 L 409.1 12.9 L 409.1 12.9 Q 402.4 12.9 398.5 10.8 L 398.5 10.8 L 398.5 10.8 Q 394.7 8.6 394.7 5.1 L 394.7 5.1 L 394.7 5.1 Q 394.7 2.5 396.7 1 L 396.7 1 L 396.7 1 Q 398.7 -0.5 401.7 -0.5 L 401.7 -0.5 L 401.7 -0.5 Q 404.4 -0.5 406.5 0.6 L 406.5 0.6 L 406.5 0.6 Q 407.7 1.3 408.3 2.2 L 408.3 2.2 L 408.3 2.2 Q 406.8 3.5 406.8 5.6 L 406.8 5.6 L 406.8 5.6 Q 406.8 8.4 409.3 8.4 L 409.3 8.4 L 409.3 8.4 Q 413.6 8.4 416 -1.3 L 416 -1.3 L 416 -1.3 Q 416.7 -4.2 417.3 -7.2 Z" fill="#444444"></path></g></g><style>text {
  font-size: 64px;
  font-family: Arial Black;
  dominant-baseline: central;
  text-anchor: middle;
}</style></svg>